<svg xmlns="http://www.w3.org/2000/svg" viewBox="0 0 1792 1792"><path fill="#474f79" d="M1167.2 561.2C811.7 325.3 972.5 96 972.5 96 627.1 294.9 550.7 598.4 635.3 982 510.7 881.1 492.8 761.6 496.7 605.2c-158.5 169.5-186.9 350.2-176.5 543.3 16.5 306.3 276.9 550.1 585.2 547.4 299.5-2.6 552.9-251.5 567.4-553.9 12.2-254.6-95.3-441.3-305.6-580.8zm-258 955.2c-54 0-105.4-10.6-152.9-29.1-62.1-24.3-116.9-63-160.5-112 2-.2 4-.7 6-.9 180.1-22.2 324.8-158.3 359.7-334.2 5.3 26.5 8.1 53.9 8.1 81.9 0 76.2-20.6 147.5-56.2 209.2 125.7-72.5 210.5-207.9 210.5-363.4 0-105.5-39.2-201.6-103.4-275.3 177.7 48.8 308.3 211.1 308.3 404.2 0 231.7-187.9 419.6-419.6 419.6z"/></svg>